<svg xmlns="http://www.w3.org/2000/svg" viewBox="0 0 474 730" role="img" aria-label="Bhuk Foods">
  <g transform="translate(0,730) scale(0.1,-0.1)" fill="#8B2415">
    <path d="M287 7182 c-97 -35 -143 -93 -173 -219 -12 -52 -15 -99 -11 -203 11
-285 108 -597 254 -819 72 -111 207 -242 309 -303 98 -58 184 -86 384 -127
220 -45 327 -100 346 -178 4 -14 -33 -203 -91 -461 -114 -516 -277 -1242 -305
-1362 -54 -233 -169 -738 -235 -1034 -106 -477 -265 -1181 -331 -1471 -59
-259 -70 -357 -45 -405 16 -30 60 -78 83 -91 9 -5 173 -45 365 -90 191 -44
569 -134 838 -199 829 -201 932 -220 1205 -220 189 0 297 11 460 44 151 32
269 74 409 147 292 153 521 381 670 669 116 225 163 416 163 660 -1 225 -38
390 -127 564 -94 185 -247 361 -402 465 l-81 55 75 43 c106 60 177 115 261
202 162 169 266 372 319 621 24 117 24 372 -1 489 -56 263 -164 468 -344 653
-154 159 -348 278 -592 363 -92 32 -796 210 -1600 405 -376 91 -441 109 -475
128 -18 10 -42 40 -58 72 -28 53 -29 59 -23 165 2 61 13 137 22 170 13 43 18
95 18 180 0 106 -3 128 -27 192 -15 40 -43 100 -63 134 -137 244 -490 552
-799 700 -161 77 -295 98 -398 61z m2397 -2638 c636 -146 706 -167 833 -245
104 -64 175 -129 231 -213 179 -268 152 -703 -59 -939 -75 -84 -154 -136 -354
-232 -99 -47 -188 -93 -197 -102 -12 -11 -18 -31 -18 -58 0 -61 36 -95 166
-156 243 -114 399 -251 499 -440 109 -208 133 -481 65 -741 -48 -183 -140
-341 -284 -484 -194 -193 -418 -303 -711 -349 -143 -23 -384 -16 -528 15 -185
39 -398 122 -546 212 -230 140 -440 369 -550 601 -170 358 -185 826 -38 1192
77 192 221 369 427 525 162 123 208 176 246 283 8 23 60 242 115 487 126 561
137 607 160 651 21 42 86 79 138 79 19 0 201 -39 405 -86z"/>
      <path d="M2778 4010 c-114 -20 -229 -104 -282 -208 -38 -75 -50 -166 -32 -251
8 -38 26 -91 40 -119 14 -27 22 -53 19 -56 -4 -4 -115 -60 -247 -125 -133 -66
-289 -148 -347 -183 -371 -223 -530 -426 -606 -770 -14 -65 -18 -125 -17 -278
0 -216 14 -303 73 -456 171 -443 611 -736 1106 -736 142 -1 216 10 345 49 314
94 586 325 739 630 17 34 31 69 31 78 0 8 -10 20 -22 25 -13 6 -365 89 -783
186 -949 219 -1024 236 -1162 269 -130 31 -122 19 -98 156 50 290 186 470 489
648 148 87 502 260 601 294 17 5 86 11 155 12 96 2 138 7 182 23 138 49 241
152 281 277 25 80 28 119 17 190 -28 172 -157 308 -328 344 -59 12 -85 12
-154 1z"/>
      <path d="M2406 2697 c-29 -23 -29 -26 -27 -109 2 -95 3 -92 -98 -210 -63 -74
-91 -129 -93 -191 -3 -72 44 -121 80 -85 7 7 12 34 12 61 0 63 16 95 95 190
98 118 99 121 96 285 -1 71 -3 82 -18 82 -10 0 -31 -11 -47 -23z"/>
      <path d="M2751 2703 c-20 -17 -23 -27 -22 -96 0 -42 -3 -87 -8 -99 -5 -13 -39
-57 -76 -98 -84 -94 -115 -156 -115 -231 0 -42 5 -63 21 -83 11 -14 29 -26 39
-26 31 0 43 25 35 79 -9 66 13 113 102 219 83 97 95 130 91 257 -3 83 -5 90
-24 93 -11 2 -31 -5 -43 -15z"/>
      <path d="M3030 2498 c-17 -26 -20 -43 -15 -81 8 -62 -15 -112 -91 -197 -66
-75 -97 -138 -97 -197 0 -72 49 -118 83 -78 8 9 12 37 11 66 -2 60 12 89 84
171 89 100 99 126 100 243 0 100 0 100 -27 103 -22 3 -32 -3 -48 -30z"/>
  </g>
</svg>
